<svg xmlns="http://www.w3.org/2000/svg" viewBox="337 154 352 566"><path fill="#D52E2B" d="M529.259 337.978C531.149 337.917 539.823 342.101 542.227 343.176L565.834 353.636C575.81 358.069 585.831 362.398 595.896 366.624C607.103 371.227 616.429 374.136 626.727 380.807C643.878 391.918 657.468 408.737 650.84 430.226C642.57 457.039 615.21 472.463 591.975 484.903C572.681 458.156 538.448 450.902 510.297 435.992C510.673 449.177 510.44 463.253 510.554 476.526C510.864 498.047 510.993 519.571 510.939 541.095C508.763 540.243 506.305 539.118 504.125 538.182C474.206 525.739 444.975 511.316 414.678 499.592C399.233 493.615 383.552 484.757 376.377 469.154C371.522 458.458 371.139 446.265 375.312 435.285C381.114 419.787 393.357 413.164 407.017 405.462C415.476 400.692 422.463 397.173 431.284 393.232C448.417 407.993 458.979 412.347 479.189 421.484L509.836 435.63C509.045 426.941 509.377 413.395 509.328 404.435L509.065 348.632C515.793 345.335 522.634 341.539 529.259 337.978Z"/><path fill="#D52E2B" d="M556.692 174.487L557.044 174.592C557.51 175.745 557.932 298.469 557.739 306.768C518.556 328.362 479.207 349.653 439.694 370.638C420.47 380.993 399.084 391.105 381.252 403.764C371.714 410.534 363.903 420.45 359.371 431.308L359.257 431.547L358.909 431.314C358.121 417.082 358.542 398.38 358.472 383.805L358.33 350.887C358.28 337.345 357.475 325.345 361.09 312.138C364.9 297.735 372.717 284.708 383.633 274.569C393.724 265.211 407.036 258.21 419.074 251.452L449.278 234.549L556.692 174.487Z"/><path fill="#D52E2B" d="M663.932 440.8L665.658 441.395C665.388 463.86 665.553 486.811 665.581 509.123C665.626 545.117 668.613 578.143 637.226 603.154C618.862 617.788 597.54 627.201 576.807 638.402C554.404 650.358 532.131 662.556 509.991 674.992C495.152 683.2 481.231 690.608 466.512 699.311L466.382 570.818C491.036 557.713 515.265 543.791 539.805 530.554C558.871 520.474 578.016 510.469 596.685 499.664C621.384 485.369 652.41 468.546 663.932 440.8Z"/><path fill="#D52E2B" d="M663.932 440.8C664.182 440.234 664.754 438.67 665.225 438.324C665.689 438.322 665.642 441.063 665.658 441.395L663.932 440.8Z"/></svg>