<svg xmlns="http://www.w3.org/2000/svg" viewBox="234 154 557 716"><path fill="#D52E2B" d="M529.259 337.978C531.149 337.917 539.823 342.101 542.227 343.176L565.834 353.636C575.81 358.069 585.831 362.398 595.896 366.624C607.103 371.227 616.429 374.136 626.727 380.807C643.878 391.918 657.468 408.737 650.84 430.226C642.57 457.039 615.21 472.463 591.975 484.903C572.681 458.156 538.448 450.902 510.297 435.992C510.673 449.177 510.44 463.253 510.554 476.526C510.864 498.047 510.993 519.571 510.939 541.095C508.763 540.243 506.305 539.118 504.125 538.182C474.206 525.739 444.975 511.316 414.678 499.592C399.233 493.615 383.552 484.757 376.377 469.154C371.522 458.458 371.139 446.265 375.312 435.285C381.114 419.787 393.357 413.164 407.017 405.462C415.476 400.692 422.463 397.173 431.284 393.232C448.417 407.993 458.979 412.347 479.189 421.484L509.836 435.63C509.045 426.941 509.377 413.395 509.328 404.435L509.065 348.632C515.793 345.335 522.634 341.539 529.259 337.978Z"/><path fill="#D52E2B" d="M556.692 174.487L557.044 174.592C557.51 175.745 557.932 298.469 557.739 306.768C518.556 328.362 479.207 349.653 439.694 370.638C420.47 380.993 399.084 391.105 381.252 403.764C371.714 410.534 363.903 420.45 359.371 431.308L359.257 431.547L358.909 431.314C358.121 417.082 358.542 398.38 358.472 383.805L358.33 350.887C358.28 337.345 357.475 325.345 361.09 312.138C364.9 297.735 372.717 284.708 383.633 274.569C393.724 265.211 407.036 258.21 419.074 251.452L449.278 234.549L556.692 174.487Z"/><path fill="#D52E2B" d="M663.932 440.8L665.658 441.395C665.388 463.86 665.553 486.811 665.581 509.123C665.626 545.117 668.613 578.143 637.226 603.154C618.862 617.788 597.54 627.201 576.807 638.402C554.404 650.358 532.131 662.556 509.991 674.992C495.152 683.2 481.231 690.608 466.512 699.311L466.382 570.818C491.036 557.713 515.265 543.791 539.805 530.554C558.871 520.474 578.016 510.469 596.685 499.664C621.384 485.369 652.41 468.546 663.932 440.8Z"/><path fill="#D52E2B" d="M663.932 440.8C664.182 440.234 664.754 438.67 665.225 438.324C665.689 438.322 665.642 441.063 665.658 441.395L663.932 440.8Z"/><path fill="#10181B" d="M505.342 758.336C519.947 758.524 545.391 756.356 558.486 762.09C582.049 772.408 580.711 808.362 555.352 817.734C562.392 826.914 570.337 838.212 576.898 847.748L565.895 848.003C563.445 847.305 558.631 839.179 556.934 836.72C552.964 830.909 548.849 825.198 544.593 819.593C536.012 820.211 525.027 819.843 516.247 819.748C516.052 829.11 516.329 838.666 516.5 848.043L505.194 848.043C504.655 818.654 505 787.716 505.342 758.336Z"/><path fill="white" d="M516.354 768.498C528.354 768.42 549.369 765.832 558.379 774.622C566.912 782.945 565.792 796.247 557.646 804.728C549.931 810.979 542.858 809.945 533.58 810.167C527.749 810.307 522.007 810.338 516.171 810.322C516.08 796.515 516.242 782.321 516.354 768.498Z"/><path fill="#10181B" d="M354.038 758.463L375.409 758.358C397.833 758.324 424.132 758.711 423.811 790.537C423.633 808.315 410.32 817.008 394.123 819.328C390.977 819.928 369.407 819.536 365.327 819.514L365.424 847.995L354.112 848.05C354.527 818.597 354.16 787.971 354.038 758.463Z"/><path fill="white" d="M365.192 768.234L365.888 768.212C378.011 767.832 398.609 766.107 407.701 775.135C414.906 782.29 414.022 796.896 406.681 803.899C395.787 812.156 379.318 810.007 365.355 809.872C365.14 796.5 364.848 781.559 365.192 768.234Z"/><path fill="#10181B" d="M634.039 758.362L645.149 758.426C648.528 763.738 656.553 783.316 659.503 790.046C667.895 809.193 677.472 828.775 685.551 847.925L674.1 848.001C670.756 840.355 667.026 832.613 663.606 824.908L646.125 824.931C636.026 824.928 625.927 824.833 615.83 824.649C612.266 832.432 608.649 840.19 604.978 847.923L593.589 847.815C606.835 817.891 620.319 788.072 634.039 758.362Z"/><path fill="white" d="M639.245 770.736C641.569 772.439 647.615 788.797 649.181 792.335C652.418 799.65 656.083 807.267 659.261 814.594L659.643 815.452L640.546 815.402C633.657 815.458 626.767 815.453 619.878 815.385C622.386 808.225 625.814 801.34 628.802 794.347C632.16 786.487 635.367 778.351 639.245 770.736Z"/><path fill="#10181B" d="M287.921 757.227C301.065 757.25 307.141 758.895 318.681 765.111L315.138 774.512C308.251 770.668 302.01 767.964 294.057 767.176C287.628 766.539 278.721 767.061 273.65 771.381C270.812 773.799 268.281 779.056 268.449 782.496C269.349 800.813 307.299 795.754 317.462 809.901C321.32 814.494 323.118 820.052 322.379 826.267C320.012 846.172 299.795 850.089 283.877 848.7C272.441 847.768 263.27 844.396 254.066 837.541C255.798 834.308 257.43 831.537 259.343 828.404C271.926 838.245 294.83 845.664 308.465 832.376C310.1 830.783 311.648 825.408 311.061 823.297C305.994 805.051 275.712 810.286 263.519 798.516C254.616 789.783 255.796 774.513 263.592 766.287C269.952 759.577 279.209 757.601 287.921 757.227Z"/><path fill="#10181B" d="M711.979 758.466L722.979 758.476L722.952 838.08L770.646 838.087L770.679 847.992L711.762 848.084L711.979 758.466Z"/><path fill="#10181B" d="M454.509 758.385L465.766 758.444C465.983 788.214 465.995 817.986 465.801 847.756C463.346 848.181 457.254 848.007 454.474 847.997L454.509 758.385Z"/></svg>